<svg xmlns:dc="http://purl.org/dc/elements/1.1/" xmlns:cc="http://creativecommons.org/ns#" xmlns:rdf="http://www.w3.org/1999/02/22-rdf-syntax-ns#" xmlns:svg="http://www.w3.org/2000/svg" xmlns="http://www.w3.org/2000/svg" xmlns:sodipodi="http://sodipodi.sourceforge.net/DTD/sodipodi-0.dtd" xmlns:inkscape="http://www.inkscape.org/namespaces/inkscape" viewBox="0 0 511.99998 639.999975" version="1.1" x="0px" y="0px">

<g transform="translate(-88.749289,-131.31133)"><path style="opacity:1;fill:#000000;fill-opacity:1;fill-rule:nonzero;stroke:none;stroke-width:15.95363998;stroke-linecap:round;stroke-linejoin:round;stroke-miterlimit:4;stroke-dasharray:none;stroke-dashoffset:0;stroke-opacity:1" d="m 525.76862,206.29198 a 255.99973,255.99973 0 0 0 -362.03868,0 255.99973,255.99973 0 0 0 0,362.03868 255.99973,255.99973 0 0 0 362.03868,0 255.99973,255.99973 0 0 0 0,-362.03868 z m -101.49445,72.67972 28.81473,28.81473 c 4.72282,4.72282 4.72424,12.3274 0.001,17.05022 l -62.47467,62.47467 62.47467,62.47467 c 4.72282,4.72283 4.7214,12.32741 -0.001,17.05022 l -28.81473,28.81473 c -4.72282,4.72282 -12.32739,4.72424 -17.05022,0.001 l -62.47467,-62.47467 -62.47467,62.47467 c -4.72282,4.72282 -12.3274,4.7214 -17.05022,-0.001 l -28.81473,-28.81473 c -4.72282,-4.72281 -4.72424,-12.3274 -0.001,-17.05022 l 62.47467,-62.47467 -62.47467,-62.47467 c -4.72282,-4.72282 -4.7214,-12.3274 0.001,-17.05022 l 28.81473,-28.81473 c 4.72281,-4.72282 12.3274,-4.72424 17.05022,-0.001 l 62.47467,62.47467 62.47467,-62.47467 c 4.72282,-4.72282 12.32741,-4.7214 17.05022,0.001 z"/></g>


</svg>