<svg xmlns="http://www.w3.org/2000/svg" xmlns:xlink="http://www.w3.org/1999/xlink" version="1.1" x="0px" y="0px" viewBox="0 0 60 75" enable-background="new 0 0 60 60" xml:space="preserve"><g>
<path d="M53.375,7.2749023l-4.9121094-4.2231445c-1.390625-1.1953125-3.5039063-1.0356445-4.6992188,0.3540039L41.25,6.3291016   l9.9667969,8.5683594l2.5117188-2.9233398C54.9238281,10.5844727,54.765625,8.4702148,53.375,7.2749023z"/><rect x="24.3839436" y="8.3135166" transform="matrix(-0.7582645 -0.6519471 0.6519471 -0.7582645 35.924202 70.0879211)" width="13.1442213" height="40.1405449"/><path d="M9.3691406,43.4140625c-1.1953125,1.390625-2.4355469,4.0048828-2.7558594,5.8076172l-1.0917969,6.1464844   c-0.3203125,1.8046875,0.8378906,2.8007813,2.5742188,2.2128906l5.9101563-2.0029297   c1.7363281-0.5878906,4.1328125-2.2041016,5.328125-3.5947266l1.328125-1.5439453l-9.9667969-8.5693359L9.3691406,43.4140625z"/></g>
</svg>