<svg xmlns="http://www.w3.org/2000/svg" xmlns:xlink="http://www.w3.org/1999/xlink" version="1.1" x="0px" y="0px" viewBox="0 0 100 125" enable-background="new 0 0 100 100" xml:space="preserve">
<path d="M50,7C26.252,7,7,26.252,7,50s19.252,43,43,43s43-19.252,43-43S73.748,7,50,7z M74.492,56.464H56.464v18.027  c0,3.57-2.894,6.464-6.464,6.464c-3.57,0-6.464-2.894-6.464-6.464V56.464H25.508c-3.57,0-6.464-2.894-6.464-6.464  s2.894-6.464,6.464-6.464h18.027V25.508c0-3.57,2.894-6.464,6.464-6.464s6.464,2.894,6.464,6.464v18.027h18.027  c3.57,0,6.464,2.894,6.464,6.464S78.062,56.464,74.492,56.464z"/>

</svg>